# File created by Blade
# Date/Time:  Mon Sep 22 15:50:36 2014
# Frame Rate: 120.000 fps
#------------------------------------------------------
:FULLY-SPECIFIED
:DEGREES
3042
root 2.909802 37.079296 3.291950 2.606977 -7.197490 2.369416
RightUpLeg 4.830225 -4.400157 -5.621606
RightLeg -4.974188 -0.000000 0.000000
RightFoot -11.350794 -12.934851 16.358553
RightToeBase 14.649189 -0.000000 -0.000000
LeftUpLeg 5.349257 5.300553 -0.877815
LeftLeg -3.621821 -0.000000 0.000000
LeftFoot -10.192202 14.935674 -17.734950
LeftToeBase 9.162502 -0.000000 -0.000000
Spine 0.709439 10.098013 3.170437
RightShoulder 2.555216 -28.345285 -12.935592
RightArm 15.236942 -19.069204 68.176738
RightForeArm 12.882915 -0.000000 42.328575
RightHand 3.463385 0.000000 -2.507968
RightHandThumb1 -24.326973 -0.000000 -32.862282
LeftShoulder -32.779994 31.880598 6.519546
LeftArm 57.807735 -71.605171 -83.631067
LeftForeArm -57.893985 -0.000000 108.678962
LeftHand -12.782779 -0.000000 14.897066
LeftHandThumb1 -26.253704 0.000000 33.147579
Head 15.100593 16.399743 4.416209
3043
root 2.913082 37.078053 3.295271 2.602268 -7.031971 2.406155
RightUpLeg 4.880315 -4.454534 -5.648316
RightLeg -4.997450 -0.000000 0.000000
RightFoot -11.399750 -13.064205 16.335472
RightToeBase 14.595474 -0.000000 -0.000000
LeftUpLeg 5.344512 5.158759 -0.913934
LeftLeg -3.627545 -0.000000 0.000000
LeftFoot -10.122956 14.912468 -17.675264
LeftToeBase 8.982708 -0.000000 -0.000000
Spine 0.669925 10.028364 3.172069
RightShoulder 2.496990 -28.350392 -12.920141
RightArm 15.132213 -19.053200 68.232031
RightForeArm 12.865597 0.000000 42.308525
RightHand 3.439664 -0.000000 -2.526616
RightHandThumb1 -24.326973 -0.000000 -32.862282
LeftShoulder -32.607463 31.820603 6.715044
LeftArm 48.642421 -70.255887 -72.736014
LeftForeArm -58.908419 -0.000000 107.306650
LeftHand -12.973084 -0.000000 13.536728
LeftHandThumb1 -26.253704 0.000000 33.147579
Head 15.127264 16.225292 4.388675
3044
root 2.911853 37.076772 3.304663 2.548209 -6.896005 2.429866
RightUpLeg 4.997043 -4.474366 -5.669996
RightLeg -5.036131 -0.000000 0.000000
RightFoot -11.442339 -13.152489 16.359470
RightToeBase 14.584064 -0.000000 -0.000000
LeftUpLeg 5.412356 5.111942 -0.918685
LeftLeg -3.663594 -0.000000 0.000000
LeftFoot -10.130446 14.855199 -17.717854
LeftToeBase 9.205982 -0.000000 -0.000000
Spine 0.652518 9.992497 3.188779
RightShoulder 2.498888 -28.405900 -12.926594
RightArm 15.048858 -19.022064 68.287364
RightForeArm 12.888381 0.000000 42.281843
RightHand 3.417312 -0.000000 -2.597022
RightHandThumb1 -24.326973 -0.000000 -32.862282
LeftShoulder -32.385213 31.812286 6.991998
LeftArm 40.348462 -68.242325 -62.733992
LeftForeArm -59.875367 -0.000000 105.903720
LeftHand -13.283440 -0.000000 11.675511
LeftHandThumb1 -26.253704 0.000000 33.147579
Head 15.179644 16.103033 4.407776
3045
root 2.915177 37.076018 3.302502 2.612425 -6.711054 2.452165
RightUpLeg 4.961697 -4.556792 -5.677377
RightLeg -5.029996 -0.000000 0.000000
RightFoot -11.497493 -13.264860 16.375870
RightToeBase 14.628148 -0.000000 -0.000000
LeftUpLeg 5.317655 4.924029 -0.943898
LeftLeg -3.650801 -0.000000 0.000000
LeftFoot -10.112330 14.834393 -17.793198
LeftToeBase 9.051763 -0.000000 -0.000000
Spine 0.510464 9.926526 3.198143
RightShoulder 2.472081 -28.468404 -12.933844
RightArm 14.989115 -19.035684 68.315075
RightForeArm 12.847172 -0.000000 42.234292
RightHand 3.395567 -0.000000 -2.561125
RightHandThumb1 -24.326973 -0.000000 -32.862282
LeftShoulder -32.308142 31.855081 7.160480
LeftArm 33.709583 -65.494238 -54.131319
LeftForeArm -60.764588 -0.000000 104.407166
LeftHand -13.525318 -0.000000 10.050533
LeftHandThumb1 -26.253704 0.000000 33.147579
Head 15.218936 15.945250 4.400297
3046
root 2.911020 37.075110 3.316686 2.535504 -6.587613 2.461873
RightUpLeg 5.123152 -4.553097 -5.683250
RightLeg -5.099511 -0.000000 0.000000
RightFoot -11.527449 -13.371215 16.414742
RightToeBase 14.613352 -0.000000 -0.000000
LeftUpLeg 5.423510 4.875890 -0.930297
LeftLeg -3.683424 -0.000000 0.000000
LeftFoot -10.092905 14.783784 -17.717977
LeftToeBase 9.188082 -0.000000 -0.000000
Spine 0.526940 9.981318 3.228599
RightShoulder 2.387471 -28.523356 -12.889620
RightArm 14.919813 -19.075545 68.326219
RightForeArm 12.892435 -0.000000 42.187583
RightHand 3.413045 -0.000000 -2.686149
RightHandThumb1 -24.326973 -0.000000 -32.862282
LeftShoulder -32.070841 31.845857 7.453767
LeftArm 28.199821 -62.298547 -46.696706
LeftForeArm -61.759723 0.000000 102.918647
LeftHand -13.975177 -0.000000 8.101282
LeftHandThumb1 -26.253704 0.000000 33.147579
Head 15.227202 15.703005 4.397049
3047
root 2.909563 37.073351 3.323781 2.499378 -6.421482 2.478060
RightUpLeg 5.220832 -4.614206 -5.691338
RightLeg -5.130641 -0.000000 0.000000
RightFoot -11.575254 -13.463615 16.422302
RightToeBase 14.626945 -0.000000 -0.000000
LeftUpLeg 5.452373 4.734225 -0.932008
LeftLeg -3.676726 -0.000000 0.000000
LeftFoot -10.088687 14.755260 -17.706395
LeftToeBase 9.158318 -0.000000 -0.000000
Spine 0.492361 9.989418 3.246739
RightShoulder 2.359160 -28.561250 -12.873249
RightArm 14.815577 -19.122315 68.348637
RightForeArm 12.904446 -0.000000 42.145338
RightHand 3.418469 -0.000000 -2.718656
RightHandThumb1 -24.326973 -0.000000 -32.862282
LeftShoulder -31.928970 31.914865 7.717208
LeftArm 24.139371 -58.595439 -40.556287
LeftForeArm -62.681733 0.000000 101.387968
LeftHand -14.462904 0.000000 6.415062
LeftHandThumb1 -26.253704 0.000000 33.147579
Head 15.245971 15.511456 4.424369
3048
root 2.909524 37.072423 3.330542 2.456707 -6.256848 2.493909
RightUpLeg 5.312098 -4.691885 -5.701717
RightLeg -5.139306 -0.000000 0.000000
RightFoot -11.633670 -13.540232 16.470843
RightToeBase 14.623479 -0.000000 -0.000000
LeftUpLeg 5.481370 4.602971 -0.934870
LeftLeg -3.657993 -0.000000 0.000000
LeftFoot -10.091063 14.714745 -17.714709
LeftToeBase 9.182137 -0.000000 -0.000000
Spine 0.456139 10.005559 3.287390
RightShoulder 2.347749 -28.664707 -12.889250
RightArm 14.782122 -19.182217 68.340624
RightForeArm 12.913925 -0.000000 42.104015
RightHand 3.366324 -0.000000 -2.751410
RightHandThumb1 -24.326973 -0.000000 -32.862282
LeftShoulder -31.718651 32.085753 7.944157
LeftArm 21.073211 -54.719020 -35.372995
LeftForeArm -63.715294 0.000000 99.864595
LeftHand -15.164015 0.000000 4.441551
LeftHandThumb1 -26.253704 0.000000 33.147579
Head 15.331633 15.299464 4.412343
3049
root 2.906848 37.072891 3.334586 2.425816 -6.092176 2.486633
RightUpLeg 5.376911 -4.753766 -5.687449
RightLeg -5.119409 -0.000000 0.000000
RightFoot -11.670908 -13.611393 16.512762
RightToeBase 14.619343 -0.000000 -0.000000
LeftUpLeg 5.494135 4.457824 -0.912262
LeftLeg -3.635230 -0.000000 0.000000
LeftFoot -10.082635 14.685865 -17.703777
LeftToeBase 9.124240 -0.000000 -0.000000
Spine 0.409039 10.033423 3.347381
RightShoulder 2.351882 -28.737435 -12.894065
RightArm 14.715210 -19.289251 68.303062
RightForeArm 12.954662 -0.000000 42.064584
RightHand 3.393732 -0.000000 -2.946651
RightHandThumb1 -24.326973 -0.000000 -32.862282
LeftShoulder -31.579772 32.326392 8.194318
LeftArm 19.028355 -50.522261 -31.130680
LeftForeArm -64.631633 -0.000000 98.347420
LeftHand -15.925035 -0.000000 2.646833
LeftHandThumb1 -26.253704 0.000000 33.147579
Head 15.412421 15.098970 4.429760
3050
root 2.906523 37.072927 3.338221 2.372965 -5.930802 2.488873
RightUpLeg 5.457662 -4.841426 -5.685508
RightLeg -5.094025 -0.000000 0.000000
RightFoot -11.726079 -13.662913 16.547752
RightToeBase 14.603464 -0.000000 -0.000000
LeftUpLeg 5.525377 4.300771 -0.904595
LeftLeg -3.605028 -0.000000 0.000000
LeftFoot -10.041459 14.681962 -17.617692
LeftToeBase 8.956105 -0.000000 -0.000000
Spine 0.385525 10.102334 3.401458
RightShoulder 2.330011 -28.821030 -12.870265
RightArm 14.662391 -19.427267 68.221455
RightForeArm 13.026334 -0.000000 42.035609
RightHand 3.340030 -0.000000 -2.938283
RightHandThumb1 -24.326973 -0.000000 -32.862282
LeftShoulder -31.288392 32.515146 8.562050
LeftArm 17.487563 -46.130170 -27.365992
LeftForeArm -65.535246 -0.000000 96.864094
LeftHand -16.769299 -0.000000 0.516509
LeftHandThumb1 -26.253704 0.000000 33.147579
Head 15.482617 14.885603 4.472441
3051
root 2.906932 37.073369 3.343245 2.291545 -5.767133 2.499225
RightUpLeg 5.561972 -4.958585 -5.694587
RightLeg -5.055617 -0.000000 0.000000
RightFoot -11.775439 -13.703091 16.560499
RightToeBase 14.605796 -0.000000 -0.000000
LeftUpLeg 5.587457 4.153782 -0.901319
LeftLeg -3.589231 -0.000000 0.000000
LeftFoot -10.075467 14.645702 -17.797133
LeftToeBase 9.001406 -0.000000 -0.000000
Spine 0.397171 10.154082 3.451549
RightShoulder 2.336258 -29.020032 -12.844293
RightArm 14.741646 -19.553164 68.061628
RightForeArm 13.106473 -0.000000 42.007958
RightHand 3.260920 -0.000000 -2.846749
RightHandThumb1 -24.326973 -0.000000 -32.862282
LeftShoulder -30.980564 32.730912 8.943124
LeftArm 16.447133 -41.635254 -24.040752
LeftForeArm -66.304904 -0.000000 95.455768
LeftHand -17.729930 -0.000000 -1.385124
LeftHandThumb1 -26.253704 0.000000 33.147579
Head 15.570671 14.715126 4.544080
3052
root 2.905645 37.075095 3.348901 2.189960 -5.596008 2.503611
RightUpLeg 5.691936 -5.051340 -5.698674
RightLeg -5.023829 -0.000000 0.000000
RightFoot -11.827437 -13.759443 16.594027
RightToeBase 14.590074 -0.000000 -0.000000
LeftUpLeg 5.667912 4.009502 -0.890747
LeftLeg -3.559360 -0.000000 0.000000
LeftFoot -10.072258 14.644154 -17.739139
LeftToeBase 9.111308 -0.000000 -0.000000
Spine 0.419130 10.129626 3.535061
RightShoulder 2.408878 -29.026104 -12.891277
RightArm 14.707311 -19.817738 67.947125
RightForeArm 13.137535 -0.000000 41.924309
RightHand 3.277373 -0.000000 -2.827918
RightHandThumb1 -24.326973 -0.000000 -32.862282
LeftShoulder -30.680294 32.953729 9.303712
LeftArm 15.811450 -37.014910 -21.001589
LeftForeArm -66.616015 -0.000000 94.059018
LeftHand -18.684719 0.000000 -3.349395
LeftHandThumb1 -26.253704 0.000000 33.147579
Head 15.717318 14.628679 4.584996
